<svg width="80" height="80" viewBox="0 0 80 80" fill="none" xmlns="http://www.w3.org/2000/svg">
<!-- <rect width="80" height="80" fill="none"/> -->
<path d="M50.1787 38.1652L40.3331 28.2331C40.2406 28.1398 40.1156 28.0882 39.9847 28.0882C39.8538 28.0882 39.7288 28.1408 39.6363 28.2341L29.8202 38.1652C29.6795 38.3071 29.6381 38.5204 29.7139 38.706C29.7907 38.8915 29.9698 39.0116 30.1686 39.0116H35.5815V51.4156C35.5815 51.6895 35.802 51.9118 36.0736 51.9118H43.947C44.2186 51.9118 44.4391 51.6895 44.4391 51.4156V39.0116H49.8313C50.0301 39.0116 50.2092 38.8905 50.286 38.705C50.3628 38.5194 50.3194 38.3071 50.1787 38.1652Z" fill="#33E183"/>
<circle cx="40" cy="40" r="26" stroke="#81FBB9" stroke-width="2"/>
</svg>
