<svg width="80" height="80" viewBox="0 0 80 80" fill="none" xmlns="http://www.w3.org/2000/svg">
<!-- <rect width="80" height="80" fill="white"/> -->
<path d="M29.8213 41.8348L39.6669 51.7669C39.7594 51.8602 39.8844 51.9118 40.0153 51.9118C40.1462 51.9118 40.2712 51.8591 40.3637 51.7659L50.1798 41.8348C50.3205 41.6929 50.3619 41.4796 50.2861 41.294C50.2093 41.1084 50.0302 40.9883 49.8314 40.9883L44.4185 40.9883L44.4185 28.5844C44.4185 28.3105 44.198 28.0882 43.9264 28.0882L36.053 28.0882C35.7814 28.0882 35.5609 28.3105 35.5609 28.5844L35.5609 40.9884L30.1687 40.9884C29.9699 40.9884 29.7908 41.1095 29.714 41.295C29.6372 41.4806 29.6806 41.6929 29.8213 41.8348Z" fill="#FF6060"/>
<circle cx="40" cy="40" r="26" transform="rotate(-180 40 40)" stroke="#FF6060" stroke-width="2"/>
</svg>
