<svg width="80" height="80" viewBox="0 0 80 80" fill="none" xmlns="http://www.w3.org/2000/svg">
<rect width="80" height="80" fill="white"/>
<path d="M68.9594 40.3271C67.2337 37.3376 63.1519 36.1108 57.2938 36.7529C60.729 32.837 62.6628 27.775 62.6628 22.5409C62.6629 10.6628 52.9989 1 41.1208 1C29.2443 1 19.5818 10.6628 19.5818 22.5409C19.5818 28.5689 22.1412 34.3668 26.6039 38.4474L26.6491 38.4871C26.7775 38.5934 26.9075 38.707 27.0395 38.8227L27.189 38.9531C29.4812 41.0431 31.0341 43.7992 31.658 46.7866C27.6467 49.3251 24.1531 52.0074 21.2856 54.6851C17.3695 50.6342 15.1875 46.8635 14.9193 44.1104C15.2898 44.1969 15.6755 44.2441 16.072 44.2441C18.8689 44.2441 21.144 41.9689 21.144 39.1713C21.144 36.3749 18.8689 34.1001 16.072 34.1001C13.2749 34.1001 11 36.3749 11 39.1713C11 40.5807 11.5778 41.8572 12.5085 42.7772C12.1133 46.5408 14.7599 51.4229 19.5566 56.3769C13.5478 62.5484 11.0084 68.5261 13.2849 72.4695C14.7049 74.9285 17.785 76.2036 22.1479 76.2029C23.2905 76.2029 24.5235 76.1141 25.8362 75.9372C26.6484 77.6574 28.3996 78.8505 30.425 78.8505C33.2218 78.8505 35.4973 76.5762 35.4973 73.7798C35.4973 70.9829 33.2221 68.707 30.425 68.707C27.7032 68.707 25.4763 70.8623 25.3586 73.5559C20.2312 74.2231 16.6243 73.4033 15.3849 71.2574C13.8761 68.6442 15.9061 63.6602 21.2991 58.0909C24.8735 61.4464 29.3848 64.7792 34.5579 67.7646C41.8381 71.9708 49.3331 74.8338 55.6629 75.8284C57.2573 76.0791 58.7387 76.2029 60.0973 76.2029C64.4585 76.2029 67.541 74.9261 68.9598 72.4691C71.2362 68.5245 68.6953 62.5446 62.6831 56.371C68.8925 49.9819 71.1812 44.1732 68.9594 40.3271ZM16.072 36.5244C17.5317 36.5244 18.7194 37.7116 18.7194 39.1713C18.7194 40.631 17.5317 41.8195 16.072 41.8195C14.6123 41.8195 13.4243 40.631 13.4243 39.1713C13.4243 37.7116 14.6123 36.5244 16.072 36.5244ZM30.425 71.1315C31.8851 71.1315 33.0731 72.3195 33.0731 73.7799C33.0731 75.2396 31.8851 76.4264 30.425 76.4264C28.9657 76.4264 27.7776 75.2396 27.7776 73.7799C27.7776 72.3195 28.9656 71.1315 30.425 71.1315ZM66.8598 41.5392C68.4524 44.2965 66.192 49.2729 60.9497 54.6752C58.0829 51.9994 54.5915 49.3188 50.5827 46.782C51.1374 44.127 52.426 41.6597 54.3117 39.685C60.7393 38.3554 65.4179 39.0412 66.8598 41.5392ZM34.3922 57.0992V55.246H47.8529V57.0992H34.3922ZM34.3922 52.8213V50.9681H47.8529V52.8213H34.3922ZM28.8009 37.1426L28.6367 36.999C28.4957 36.8759 28.3568 36.7537 28.2187 36.6394C24.27 33.0173 22.0061 27.8807 22.0061 22.5409C22.0061 11.9999 30.581 3.42462 41.1208 3.42462C51.6621 3.42462 60.2381 11.9999 60.2381 22.5409C60.2381 27.8787 57.9715 33.0161 54.0183 36.6409C53.8638 36.7709 53.7096 36.9086 53.5535 37.0488L53.4305 37.1601C50.1841 40.1048 48.2059 44.1998 47.8933 48.5415H34.3462C34.0341 44.2079 32.0586 40.1125 28.8009 37.1426ZM23.0261 56.3961C25.103 54.4555 27.572 52.4672 30.426 50.5029V50.968H31.9675V52.8212H30.426V55.2458H31.9675V57.099H30.426V59.5237H51.8205V57.099H50.2775V55.2458H51.8205V52.8212H50.2775V50.968H51.8205V50.5024C54.668 52.4627 57.1323 54.4468 59.206 56.3836C55.6731 59.6864 51.2981 62.8788 46.4748 65.6646C44.6922 66.6917 42.8914 67.639 41.1147 68.4877C39.3366 67.6355 37.5478 66.6923 35.7699 65.6653C30.6064 62.6851 26.3329 59.4907 23.0261 56.3961ZM66.8598 71.2572C65.5554 73.5161 61.6112 74.3089 56.0398 73.4331C52.3478 72.8535 48.2242 71.5967 43.9714 69.7817C45.2094 69.1501 46.4522 68.4763 47.6864 67.7656C52.7018 64.8684 57.2587 61.5367 60.9392 58.084C66.3363 63.6564 68.3684 68.6431 66.8598 71.2572Z" fill="#23A7F2"/>
<path d="M45.8786 61.3772H36.3699V63.8018H45.8786V61.3772Z" fill="#23A7F2"/>
<path d="M39.9647 33.2228L42.2785 33.9461L46.2219 21.3273H39.3185L42.2785 11.8567L39.9647 11.1334L36.0208 23.7523H42.9238L39.9647 33.2228Z" fill="#23A7F2"/>
</svg>
