<svg width="161" height="45" viewBox="0 0 161 45" fill="none" xmlns="http://www.w3.org/2000/svg">
<path d="M44.2226 19.8129C44.3752 16.6436 42.1617 14.5412 39.6636 13.0977L38.0398 22.6371C39.1639 22.5743 39.7135 23.0011 39.9134 23.2019C40.1632 23.4529 40.7877 24.2061 40.0383 25.3985C41.5996 25.1474 44.0383 23.6412 44.2226 19.8129Z" fill="url(#paint0_linear)"/>
<path fill-rule="evenodd" clip-rule="evenodd" d="M22.9226 8.70669L20.9866 6.76116C23.901 6.40553 31.591 6.86158 39.0354 11.5308C39.1603 12.0329 39.0354 12.786 39.0354 12.786L39.6599 13.0998C40.2012 13.8738 41.1213 16.0746 40.4718 18.6854C39.8223 21.2961 38.7023 22.4091 38.2235 22.6392C37.2243 22.6392 35.5256 23.2166 34.976 25.7771C34.4264 28.3377 33.373 28.8942 32.915 28.8523L21.9234 28.9778L14.6789 24.7102L13.6172 15.8612L15.6781 13.0998L19.3628 10.0874L21.9858 9.02049L22.9226 8.70669ZM35.9042 12.3621C35.4196 12.8669 34.9663 13.1091 34.837 13.1748C32.0067 12.5728 30.9871 11.1086 30.9871 11.1086C33.6567 11.0921 36.0662 11.7271 37.8291 12.8012C37.8291 12.8012 36.8748 12.492 35.9042 12.3621Z" fill="url(#paint1_linear)"/>
<path fill-rule="evenodd" clip-rule="evenodd" d="M34.8791 25.7779C32.9389 26.73 30.6386 27.2813 28.1722 27.2813C21.2394 27.2813 15.6192 22.9261 15.6192 17.5536C15.6192 13.5853 18.6856 10.172 23.0823 8.65887C14.7198 9.14111 8 15.8592 8 24.1486C8 33.7158 16.5281 41.6209 27.048 41.6209C34.9036 41.6209 41.4425 37.0664 44.8615 30.9728C40.157 32.0308 34.5878 30.0192 34.8791 25.7779Z" fill="url(#paint2_linear)"/>
<path d="M74.8345 30.8968H77.6523V25.7422H80.8368C84.3877 25.7422 87.2514 23.8407 87.2514 20.2668V20.221C87.2514 16.9908 84.9146 14.8602 81.1575 14.8602H74.8345V30.8968ZM77.6523 23.1992V17.426H80.9284C83.0361 17.426 84.3877 18.3882 84.3877 20.2897V20.3355C84.3877 22.0079 83.059 23.1992 80.9284 23.1992H77.6523Z" fill="white"/>
<path d="M97.789 31.1717C102.715 31.1717 106.197 27.3687 106.197 22.8785V22.8327C106.197 18.3195 102.76 14.5853 97.8348 14.5853C92.9093 14.5853 89.4271 18.3882 89.4271 22.8785V22.9243C89.4271 27.4375 92.8635 31.1717 97.789 31.1717ZM97.8348 28.56C94.6275 28.56 92.3824 25.9942 92.3824 22.8785V22.8327C92.3824 19.717 94.6046 17.1969 97.789 17.1969C100.996 17.1969 103.241 19.7628 103.241 22.8785V22.9243C103.241 26.04 101.019 28.56 97.8348 28.56Z" fill="white"/>
<path d="M109.601 30.8968H120.85V28.3309H112.419V14.8602H109.601V30.8968Z" fill="white"/>
<path d="M123.763 30.8968H135.012V28.3309H126.581V14.8602H123.763V30.8968Z" fill="white"/>
<path d="M144.592 31.1717C149.518 31.1717 153 27.3687 153 22.8785V22.8327C153 18.3195 149.564 14.5853 144.638 14.5853C139.713 14.5853 136.23 18.3882 136.23 22.8785V22.9243C136.23 27.4375 139.667 31.1717 144.592 31.1717ZM144.638 28.56C141.431 28.56 139.186 25.9942 139.186 22.8785V22.8327C139.186 19.717 141.408 17.1969 144.592 17.1969C147.8 17.1969 150.045 19.7628 150.045 22.8785V22.9243C150.045 26.04 147.822 28.56 144.638 28.56Z" fill="white"/>
<path d="M58.2472 30.8968H55.3606L62.4167 14.7456H65.0284L72.0845 30.8968H69.1063L67.4797 27.0251L66.4488 24.528L63.6767 18.1133L60.9276 24.528L59.8967 27.0251L58.2472 30.8968Z" fill="white"/>
<path d="M59.6667 8.33309C52.526 7.67462 51.9939 7.14518 51.3356 0C50.6764 7.14518 50.1438 7.67487 43 8.33309C50.1438 8.98817 50.6764 9.52488 51.3356 16.6667C51.9939 9.52488 52.526 8.98817 59.6667 8.33309Z" fill="#84A5FF"/>
<defs>
<linearGradient id="paint0_linear" x1="36.1712" y1="-10.0365" x2="43.0743" y2="24.9866" gradientUnits="userSpaceOnUse">
<stop stop-color="#F1F3FA"/>
<stop offset="1" stop-color="#CAD0DE"/>
</linearGradient>
<linearGradient id="paint1_linear" x1="22.3785" y1="9.05948" x2="33.7102" y2="27.0442" gradientUnits="userSpaceOnUse">
<stop stop-color="#E3E6EF"/>
<stop offset="1" stop-color="#B2B9CB"/>
</linearGradient>
<linearGradient id="paint2_linear" x1="18.4707" y1="29.1041" x2="57.618" y2="49.0861" gradientUnits="userSpaceOnUse">
<stop stop-color="#CACFDD"/>
<stop offset="1" stop-color="#F1F4FB"/>
</linearGradient>
</defs>
</svg>
