<svg width="45" height="45" viewBox="0 0 45 45" fill="none" xmlns="http://www.w3.org/2000/svg">
<rect width="45" height="45" fill="white"/>
<path d="M13.7984 31.9895H29.2642L28.5256 29.5979C28.6351 29.6934 34.8621 35.0308 34.8621 35.0308V11.6844C34.7883 10.2332 33.5388 9 31.9899 9L13.8038 9.00325C12.256 9.00325 11 10.2386 11 11.6898V29.304C11 30.8344 12.2538 31.9895 13.7984 31.9895V31.9895ZM25.2391 15.1639L25.2033 15.1769L25.2164 15.1639H25.2391ZM16.9623 16.5402C18.9504 15.0934 20.7932 15.1628 20.7932 15.1628L20.9418 15.3092C18.509 15.8895 17.4059 16.9763 17.4059 16.9763C17.5187 16.9524 22.431 14.1183 28.3835 17.0478C28.3835 17.0478 27.2783 16.0316 24.9951 15.3808L25.1968 15.1823C25.5125 15.1834 27.1828 15.242 28.9703 16.5489C28.9703 16.5489 30.9704 19.9655 30.9704 24.1629C30.9042 24.0827 29.7295 25.9699 26.7067 26.035C26.7067 26.035 26.1947 25.4558 25.8303 24.9504C27.5982 24.4428 28.2599 23.4276 28.2599 23.4276C24.8183 25.5946 21.8019 25.2562 18.1933 23.792C18.1597 23.792 18.1445 23.7768 18.1272 23.7594V23.7529C18.1098 23.7367 18.0946 23.7204 18.061 23.7204H17.9959C17.7747 23.5751 17.6271 23.5035 17.6271 23.5035C17.6271 23.5035 18.2877 24.5187 19.9852 25.0263C19.5394 25.535 19.0979 26.1131 19.0979 26.1131C16.0761 26.0415 14.9741 24.1542 14.9741 24.1542C14.9741 19.9503 16.9623 16.5402 16.9623 16.5402V16.5402Z" fill="#A0A8C2"/>
<path d="M25.4344 22.8511C26.2056 22.8511 26.8336 22.2004 26.8336 21.3979C26.8336 20.6009 26.2088 19.9502 25.4344 19.9502V19.9534C24.6664 19.9534 24.0373 20.6019 24.0352 21.4044C24.0352 22.2004 24.6632 22.8511 25.4344 22.8511Z" fill="#A0A8C2"/>
<path d="M20.4255 22.8511C21.1967 22.8511 21.8247 22.2004 21.8247 21.3979C21.8247 20.6009 21.201 19.9502 20.4299 19.9502L20.4255 19.9534C19.6544 19.9534 19.0264 20.6019 19.0264 21.4044C19.0264 22.2004 19.6544 22.8511 20.4255 22.8511V22.8511Z" fill="#A0A8C2"/>
</svg>
