<svg width="130" height="130" viewBox="0 0 130 130" fill="none" xmlns="http://www.w3.org/2000/svg">
<path d="M104.237 61.4393C104.634 53.2707 98.875 47.8518 92.376 44.1314L88.1516 68.7184C91.0762 68.5566 92.506 69.6566 93.0259 70.1742C93.6758 70.8212 95.3006 72.7623 93.3508 75.8357C97.4127 75.1886 103.757 71.3065 104.237 61.4393Z" fill="url(#paint0_linear)"/>
<path fill-rule="evenodd" clip-rule="evenodd" d="M48.8225 32.8142L43.7857 27.7997C51.3679 26.8831 71.3741 28.0585 90.7413 40.0932C91.0662 41.3873 90.7413 43.3283 90.7413 43.3283L92.3661 44.1371C93.7742 46.1321 96.168 51.8044 94.4782 58.5334C92.7885 65.2625 89.8747 68.131 88.6291 68.7241C86.0295 68.7241 81.6101 70.2122 80.1803 76.8119C78.7506 83.4116 76.0101 84.8458 74.8186 84.738L46.2228 85.0615L27.3756 74.062L24.6135 51.2544L29.9752 44.1371L39.5613 36.3728L46.3853 33.623L48.8225 32.8142ZM82.5955 42.236C81.3346 43.5372 80.1555 44.1615 79.8188 44.3308C72.4557 42.7791 69.803 39.0052 69.803 39.0052C76.7483 38.9628 83.0168 40.5994 87.6031 43.3679C87.6031 43.3679 85.1205 42.5708 82.5955 42.236Z" fill="url(#paint1_linear)"/>
<path fill-rule="evenodd" clip-rule="evenodd" d="M79.9283 76.8145C74.8809 79.2684 68.8966 80.6891 62.4802 80.6891C44.4439 80.6891 29.8225 69.4638 29.8225 55.6168C29.8225 45.3873 37.8022 36.5886 49.2435 32.6895C27.4852 33.9298 10 51.2463 10 72.6134C10 97.2721 32.1866 117.647 59.5552 117.647C79.9921 117.647 97.0036 105.908 105.899 90.2022C93.6599 92.929 79.172 87.745 79.9283 76.8145Z" fill="url(#paint2_linear)"/>
<path d="M124 26.8323C108.576 25.4232 107.427 24.2902 106.005 9C104.581 24.2902 103.431 25.4237 88 26.8323C103.431 28.2341 104.581 29.3826 106.005 44.6656C107.427 29.3826 108.576 28.2341 124 26.8323Z" fill="#84A5FF"/>
<defs>
<linearGradient id="paint0_linear" x1="83.2903" y1="-15.4953" x2="100.929" y2="74.8366" gradientUnits="userSpaceOnUse">
<stop stop-color="#F1F3FA"/>
<stop offset="1" stop-color="#CAD0DE"/>
</linearGradient>
<linearGradient id="paint1_linear" x1="47.4068" y1="33.7235" x2="76.4949" y2="80.3226" gradientUnits="userSpaceOnUse">
<stop stop-color="#E3E6EF"/>
<stop offset="1" stop-color="#B2B9CB"/>
</linearGradient>
<linearGradient id="paint2_linear" x1="37.2405" y1="85.3856" x2="138.691" y2="137.654" gradientUnits="userSpaceOnUse">
<stop stop-color="#CACFDD"/>
<stop offset="1" stop-color="#F1F4FB"/>
</linearGradient>
</defs>
</svg>
