<svg width="80" height="80" viewBox="0 0 80 80" fill="none" xmlns="http://www.w3.org/2000/svg">
<rect width="80" height="80" fill="white"/>
<path d="M67.7244 55.169L67.7348 55.188L67.7459 55.2066C70.8173 60.3369 67.1033 66.85 61.0484 66.85H17.9509C11.8911 66.85 8.18362 60.3319 11.2549 55.2071L11.2662 55.1882L11.2767 55.169L32.8132 15.9104C35.8361 10.8936 43.1675 10.8995 46.1868 15.9104L67.7244 55.169ZM34.7758 56.4627C34.7758 59.0608 36.9037 61.1569 39.5 61.1569C42.0963 61.1569 44.2242 59.0608 44.2242 56.4627C44.2242 53.8647 42.0963 51.7685 39.5 51.7685C36.9037 51.7685 34.7758 53.8647 34.7758 56.4627ZM39.5 47.8101C42.0963 47.8101 44.2242 45.714 44.2242 43.1159V25.3951C44.2242 22.797 42.0963 20.7009 39.5 20.7009C36.9037 20.7009 34.7758 22.797 34.7758 25.3951V43.1159C34.7758 45.714 36.9037 47.8101 39.5 47.8101Z" stroke="url(#paint0_linear)" stroke-width="2.3"/>
<defs>
<linearGradient id="paint0_linear" x1="39.5" y1="11" x2="39.5" y2="68" gradientUnits="userSpaceOnUse">
<stop stop-color="#E538EB"/>
<stop offset="1" stop-color="#FC6423"/>
</linearGradient>
</defs>
</svg>
