<svg width="45" height="45" viewBox="0 0 45 45" fill="none" xmlns="http://www.w3.org/2000/svg">
<rect width="45" height="45" fill="white"/>
<path d="M35.0176 14.464C34.05 14.8819 33.0191 15.1588 31.9443 15.2933C33.05 14.6433 33.8939 13.6219 34.2907 12.3907C33.2598 12.9958 32.1215 13.4233 30.9084 13.6619C29.9295 12.6356 28.5343 12 27.0123 12C24.0593 12 21.6819 14.3599 21.6819 17.253C21.6819 17.6693 21.7177 18.0695 21.8055 18.4506C17.3712 18.2376 13.4474 16.1451 10.8115 12.9574C10.3513 13.7435 10.0814 14.6433 10.0814 15.6119C10.0814 17.4307 11.0326 19.043 12.4506 19.9764C11.5936 19.9604 10.7529 19.7154 10.0407 19.3295C10.0407 19.3456 10.0407 19.3664 10.0407 19.3872C10.0407 21.9392 11.8896 24.059 14.3141 24.5473C13.8799 24.6642 13.4067 24.7202 12.9156 24.7202C12.5742 24.7202 12.2294 24.701 11.9058 24.6306C12.5969 26.7103 14.558 28.2393 16.8898 28.2889C15.0751 29.6867 12.7709 30.5288 10.2765 30.5288C9.83907 30.5288 9.41953 30.5096 9 30.4568C11.3627 31.9569 14.1629 32.8135 17.1825 32.8135C26.9977 32.8135 32.3638 24.8083 32.3638 17.8694C32.3638 17.6372 32.3557 17.4131 32.3443 17.1906C33.4029 16.4509 34.2923 15.5271 35.0176 14.464Z" fill="#A0A8C2"/>
</svg>
