<svg width="1440" height="530" viewBox="0 0 1440 530" fill="none" xmlns="http://www.w3.org/2000/svg">
<mask id="mask0" mask-type="alpha" maskUnits="userSpaceOnUse" x="0" y="0" width="1440" height="530">
<rect width="1440" height="530" fill="#081937"/>
</mask>
<g mask="url(#mask0)">
<g opacity="0.6">
<path d="M1311.95 236.044C1314.54 182.413 1277.08 146.836 1234.81 122.41L1207.33 283.834C1226.35 282.772 1235.65 289.993 1239.03 293.392C1243.26 297.64 1253.83 310.384 1241.15 330.562C1267.57 326.314 1308.83 300.826 1311.95 236.044Z" fill="url(#paint0_linear)"/>
<path fill-rule="evenodd" clip-rule="evenodd" d="M951.517 48.1059L918.755 15.1839C968.073 9.16594 1098.2 16.8831 1224.17 95.8959C1226.29 104.392 1224.17 117.136 1224.17 117.136L1234.74 122.446C1243.9 135.544 1259.47 172.785 1248.48 216.964C1237.49 261.143 1218.54 279.976 1210.44 283.87C1193.53 283.87 1164.78 293.64 1155.48 336.97C1146.18 380.299 1128.36 389.716 1120.61 389.008L934.608 391.132L812.017 318.916L794.051 169.174L828.926 122.446L891.278 71.4699L935.664 53.4159L951.517 48.1059ZM1171.19 109.962C1162.99 118.505 1155.32 122.604 1153.13 123.715C1105.24 113.527 1087.98 88.7503 1087.98 88.7503C1133.16 88.4716 1173.93 99.2166 1203.76 117.393C1203.76 117.393 1187.62 112.16 1171.19 109.962Z" fill="url(#paint1_linear)"/>
<path fill-rule="evenodd" clip-rule="evenodd" d="M1153.84 336.984C1121.01 353.096 1082.09 362.423 1040.35 362.423C923.037 362.423 827.933 288.725 827.933 197.813C827.933 130.659 879.825 72.8976 954.231 47.2942C812.718 55.4496 699 169.135 699 309.41C699 471.305 843.311 605.074 1021.33 605.074C1154.26 605.074 1264.91 528.003 1322.77 424.888C1243.16 442.791 1148.92 408.753 1153.84 336.984Z" fill="url(#paint2_linear)"/>
</g>
<g filter="url(#filter0_f)">
<circle cx="998" cy="266" r="71" fill="#4DD0EE"/>
</g>
<g filter="url(#filter1_f)">
<ellipse cx="1018" cy="469" rx="197" ry="71" fill="#4DD0EE"/>
</g>
<path d="M5.60512 386.19H186.835H209.256H220.466H227.939L241.018 383.2C241.018 383.2 250.359 385.193 254.096 386.19C257.833 387.187 263.438 385.193 267.175 386.19C270.911 387.187 278.385 385.193 278.385 385.193C278.385 385.193 285.858 384.196 287.727 385.193C291.463 386.19 298.937 384.196 302.673 385.193C306.41 386.19 315.752 384.196 317.62 385.193C321.357 386.19 315.752 385.193 328.83 387.187C341.909 389.18 353.119 385.193 358.724 387.187C366.198 390.177 373.671 385.193 377.408 387.187C381.144 389.18 392.354 388.183 396.091 387.187C399.828 386.19 401.696 384.196 409.17 385.193C416.643 387.187 420.38 388.183 424.116 388.183C427.853 388.183 435.327 389.18 439.063 388.183C442.8 388.183 446.537 385.193 454.01 385.193C461.483 386.19 465.22 384.196 470.825 385.193C476.43 386.19 495.114 384.196 498.851 385.193C502.587 386.19 510.061 385.193 510.061 385.193C510.061 385.193 513.797 385.193 521.271 385.193C530.613 385.193 534.349 385.193 538.086 385.193C541.823 385.193 547.428 385.193 547.428 385.193C547.428 385.193 549.296 383.2 560.506 385.193C571.717 387.187 577.321 384.196 581.058 385.193C584.795 386.19 601.61 386.19 607.215 386.19C612.82 387.187 614.689 384.196 625.899 385.193C638.977 386.19 627.767 387.187 638.977 386.19C650.187 385.193 652.056 389.18 659.529 385.193C667.002 382.203 674.476 385.193 674.476 385.193C674.476 385.193 687.554 386.19 695.028 385.193C702.501 384.196 713.711 385.193 713.711 385.193C713.711 385.193 719.316 381.206 726.79 382.203C734.263 383.2 741.737 386.19 747.342 385.193C754.815 384.196 756.683 386.19 764.157 385.193C771.63 384.196 779.104 386.19 782.84 385.193C786.577 384.196 805.261 386.19 808.997 385.193C812.734 384.196 808.998 386.19 822.076 385.193C835.154 384.196 848.233 385.193 848.233 385.193C848.233 385.193 863.18 384.196 872.522 385.193C881.863 386.19 891.205 385.193 891.205 385.193L915.494 388.183C915.494 388.183 921.099 389.18 924.835 388.183C928.572 387.187 945.387 388.183 945.387 388.183C945.387 388.183 950.992 385.193 954.729 385.193C958.466 385.193 965.939 385.193 973.413 385.193C980.886 385.193 992.096 384.196 997.701 385.193C1003.31 386.19 1005.17 385.193 1008.91 385.193C1012.65 385.193 1018.25 382.203 1029.46 382.203C1040.67 382.203 1046.28 382.203 1050.02 382.203C1053.75 382.203 1063.09 382.203 1066.83 382.203C1070.57 382.203 1092.99 382.203 1092.99 382.203H1135.96C1135.96 382.203 1143.43 385.193 1150.91 385.193C1158.38 385.193 1156.51 385.193 1165.85 385.193C1175.19 385.193 1188.27 385.193 1188.27 385.193C1188.27 385.193 1197.62 382.203 1205.09 382.203C1212.56 382.203 1218.17 383.2 1227.51 382.203C1236.85 381.206 1242.46 382.203 1246.19 382.203C1249.93 382.203 1264.88 381.206 1266.74 382.203C1270.48 383.2 1277.95 386.19 1281.69 385.193C1285.43 384.196 1292.9 385.193 1296.64 385.193C1300.37 385.193 1317.19 385.193 1317.19 385.193C1317.19 385.193 1324.66 386.19 1326.53 385.193C1330.27 384.196 1345.22 382.203 1345.22 382.203C1345.22 382.203 1348.95 382.203 1352.69 382.203C1356.43 382.203 1365.77 383.2 1367.64 382.203C1371.37 381.206 1386.32 381.206 1391.92 382.203C1395.66 383.2 1401.27 380.21 1405 381.206C1408.74 383.2 1431.16 384.196 1431.16 384.196H1476V744H0V386.19H5.60512Z" fill="url(#paint3_linear)"/>
<path opacity="0.17" fill-rule="evenodd" clip-rule="evenodd" d="M1479.99 391.807C1429.04 394.804 1380.09 396.802 1380.09 396.802C1380.09 396.802 1310.17 393.805 1216.27 394.804C1122.37 396.802 1049.44 401.796 1255.22 401.796C1460.01 401.796 1481.98 408.789 1264.21 409.788C1046.45 410.787 719.795 405.792 916.586 411.786C1113.38 416.78 1667.79 421.775 1251.23 427.769C835.672 433.762 715.799 432.763 1177.31 436.759C1638.82 440.755 1219.26 450.744 1147.34 450.744C1075.42 450.744 989.508 454.74 1168.32 458.736C1312.16 461.733 1398.07 473.72 1478.99 477.715V391.807H1479.99Z" fill="#2E59A7"/>
<path d="M970.706 414.774C970.706 414.774 1006.67 414.774 1012.66 413.775C1018.66 412.776 1041.63 413.775 1041.63 413.775C1041.63 413.775 1031.64 412.776 1044.63 413.775C1057.61 415.773 1071.6 416.772 1079.59 417.771C1086.58 418.77 1110.56 418.77 1116.55 418.77C1122.54 418.77 1146.52 418.77 1153.51 418.77C1160.5 418.77 1212.45 417.771 1212.45 417.771C1212.45 417.771 1132.53 423.765 1084.58 423.765C1036.64 422.766 1021.65 423.765 1011.66 421.767C1000.67 419.769 957.72 424.763 970.706 414.774Z" fill="#000F33"/>
<path d="M1096.57 211.991C1095.57 211.991 1094.57 211.991 1094.57 212.99L1083.58 423.765H1087.58L1098.57 212.99C1098.57 212.99 1097.57 211.991 1096.57 211.991Z" fill="#000F33"/>
<path d="M1099.57 269.929C1099.57 268.93 1099.57 267.931 1099.57 267.931C1099.57 267.931 1099.57 267.931 1099.57 266.932C1099.57 265.933 1099.57 265.933 1098.57 264.934C1097.57 263.935 1096.57 262.937 1096.57 262.937C1096.57 262.937 1096.57 262.937 1096.57 261.938C1096.57 260.939 1095.57 259.94 1094.57 259.94C1093.57 259.94 1091.58 259.94 1091.58 259.94C1091.58 259.94 1091.58 257.942 1092.57 256.943C1092.57 255.944 1092.57 254.945 1091.58 254.945C1090.58 254.945 1089.58 255.944 1088.58 256.943C1087.58 257.942 1086.58 259.94 1085.58 260.939C1084.58 261.938 1083.58 261.938 1083.58 261.938C1083.58 260.939 1082.59 260.939 1082.59 260.939C1082.59 260.939 1080.59 260.939 1079.59 260.939C1078.59 260.939 1077.59 260.939 1076.59 260.939C1075.59 260.939 1069.6 258.941 1068.6 258.941C1067.6 258.941 1063.61 257.942 1062.61 256.943C1061.61 255.944 1059.61 257.942 1058.61 256.943C1057.61 255.944 1056.61 256.943 1053.62 255.944C1051.62 255.944 1052.62 254.945 1051.62 253.946C1052.62 252.947 1052.62 252.947 1052.62 252.947L1040.63 246.954C1040.63 246.954 1039.63 246.954 1039.63 247.953C1037.63 245.955 1036.63 246.954 1034.64 245.955C1032.64 244.956 1034.64 245.955 1032.64 245.955C1031.64 245.955 1031.64 245.955 1031.64 245.955C1030.64 241.959 1028.64 238.962 1024.65 237.963V236.964C1023.65 235.965 1023.65 234.966 1022.65 233.967C1024.65 230.971 1025.65 226.975 1025.65 223.978C1025.65 212.99 1017.65 203.999 1006.67 203.999C997.676 203.999 990.683 209.993 988.685 217.984C985.689 217.984 982.692 218.983 980.694 220.981C978.696 222.979 977.697 225.976 978.696 229.972C979.695 232.969 979.695 234.966 980.694 237.963C977.697 239.961 974.7 243.957 973.701 247.953C972.702 248.951 970.704 249.95 970.704 250.949C969.706 252.947 968.707 256.943 967.708 257.942C966.709 259.94 965.71 259.94 965.71 262.937C965.71 263.935 965.71 265.933 964.711 266.932C963.712 266.932 962.713 266.932 961.714 267.931L955.72 277.921C955.72 277.921 956.719 277.921 957.718 277.921C956.719 279.918 956.719 279.918 955.72 280.917C954.721 281.916 953.723 282.915 953.723 284.913C953.723 286.911 951.725 288.909 949.727 289.908C948.728 291.906 942.734 301.895 942.734 301.895V302.894C942.734 303.893 941.735 303.893 940.736 304.892C938.739 305.891 936.741 307.889 935.742 308.888C934.743 309.887 933.744 310.885 932.745 311.884C931.746 312.883 928.749 315.88 928.749 316.879C928.749 317.878 927.75 318.877 928.749 318.877C929.748 318.877 929.748 318.877 930.747 317.878C931.746 316.879 931.746 316.879 931.746 316.879C931.746 317.878 929.748 319.876 928.749 320.875C927.75 321.874 927.75 323.872 928.749 323.872C929.748 324.871 930.747 323.872 931.746 322.873C932.745 321.874 933.744 320.875 933.744 319.876C933.744 318.877 934.743 318.877 934.743 318.877C934.743 318.877 932.745 322.873 932.745 323.872C932.745 324.871 932.745 325.869 933.744 325.869C934.743 325.869 935.742 324.871 936.741 323.872C937.739 322.873 937.74 321.874 937.74 320.875C937.74 319.876 937.74 319.876 937.74 319.876C937.74 319.876 936.741 322.873 936.741 323.872C936.741 324.871 938.739 324.871 938.739 323.872C939.737 322.873 940.736 320.875 941.735 319.876C941.735 317.878 942.734 317.878 943.733 316.879C944.732 315.88 946.73 313.882 948.728 310.885C948.728 309.887 949.727 308.888 949.727 307.889C950.726 307.889 951.725 307.889 951.725 307.889C952.724 306.89 955.72 301.895 956.719 300.896C957.718 300.896 957.718 299.897 959.716 297.899C960.715 295.901 960.715 296.9 962.713 295.901C964.711 294.902 963.712 294.902 964.711 292.905C965.71 290.907 965.71 291.906 966.709 290.907C967.708 289.908 967.708 289.908 969.705 287.91C971.703 285.912 970.704 285.912 971.703 284.913C972.702 284.913 972.702 283.914 972.702 282.915V292.905C971.703 292.905 970.704 293.904 970.704 295.901C970.704 296.9 971.703 297.899 972.702 298.898V303.893C970.704 304.892 967.708 306.89 967.708 312.883H970.704C970.704 309.887 971.703 307.889 972.702 307.889V312.883C972.702 316.879 973.701 319.876 975.699 321.874C975.699 323.872 974.7 324.871 974.7 325.869C973.701 326.868 974.7 328.866 974.7 333.861C974.7 338.856 974.7 334.86 972.702 336.858C971.703 338.856 971.703 339.855 972.702 342.851C973.701 346.847 974.7 347.846 973.701 350.843C972.702 353.84 971.703 360.832 971.703 363.829C971.703 365.827 971.703 366.826 969.705 370.822C967.708 374.817 969.705 374.817 969.705 380.811C969.705 386.805 969.705 382.809 969.705 385.806C969.705 388.802 967.708 388.802 969.705 391.799C971.703 394.796 970.704 401.789 970.704 401.789H971.703C971.703 403.786 971.703 407.782 970.704 409.78C968.707 409.78 967.708 412.777 967.708 412.777V417.772V418.771C967.708 419.769 968.707 420.768 969.705 420.768C972.702 422.766 978.696 420.768 979.695 419.769C980.694 418.77 980.694 417.772 980.694 416.773L982.692 399.791H980.694C981.693 398.792 981.693 397.793 981.693 397.793C981.693 397.793 982.692 394.796 982.692 391.799C982.692 388.802 983.691 388.802 984.689 385.806C986.687 382.809 984.69 381.81 985.688 379.812C986.687 377.814 986.687 374.817 985.688 371.821C984.69 368.824 986.687 368.824 985.688 366.826C985.688 364.828 985.688 364.828 986.687 363.829C987.686 361.831 986.687 362.83 986.687 359.833C986.687 356.836 986.687 358.834 989.684 356.837C991.682 354.839 989.684 355.838 990.683 351.842C991.682 347.846 992.681 349.844 992.681 347.846C993.68 345.848 991.682 346.847 992.681 344.849C993.68 342.851 994.679 343.85 994.679 340.854C994.679 337.857 996.677 334.86 996.677 337.857C996.677 340.854 997.676 339.855 998.675 334.86C999.674 329.865 998.675 337.857 997.676 341.852C996.677 344.849 998.675 344.849 999.674 346.847C1000.67 348.845 999.674 349.844 999.674 350.843C998.675 351.842 999.674 352.841 1000.67 354.839C1001.67 356.836 1001.67 356.836 1001.67 359.833C1001.67 361.831 1001.67 360.832 1002.67 363.829C1003.67 366.826 1002.67 368.824 1000.67 371.821C997.676 374.817 999.673 375.816 1001.67 379.812C1002.67 384.807 1001.67 383.808 1000.67 386.805C999.674 389.801 1000.67 388.802 1000.67 390.8C1000.67 393.797 1000.67 394.796 999.674 395.795C999.674 396.794 999.674 396.794 999.674 397.793H998.675L996.677 412.777L997.676 413.776C997.676 416.773 997.676 419.769 997.676 419.769C997.676 419.769 999.674 420.768 1003.67 420.768C1003.67 420.768 1007.67 420.768 1009.66 420.768C1010.66 420.768 1014.66 415.774 1014.66 415.774L1015.66 412.777C1014.66 410.779 1012.66 409.78 1010.66 409.78C1011.66 407.782 1012.66 403.786 1012.66 402.788C1012.66 402.788 1012.66 401.789 1012.66 400.79C1013.66 399.791 1013.66 399.791 1013.66 398.792C1013.66 396.794 1014.66 396.794 1015.66 396.794C1016.66 395.795 1016.66 394.796 1017.65 391.799C1018.65 388.802 1017.65 390.8 1018.65 387.803C1019.65 384.807 1018.65 380.811 1019.65 377.814C1020.65 374.817 1022.65 365.827 1022.65 364.828C1022.65 362.83 1022.65 363.829 1021.65 360.832C1020.65 358.834 1021.65 358.834 1022.65 357.835C1023.65 356.836 1022.65 355.838 1021.65 353.84C1020.65 351.842 1020.65 350.843 1022.65 349.844C1024.65 348.845 1022.65 346.847 1022.65 344.849C1022.65 342.851 1024.65 342.851 1024.65 339.855C1024.65 336.858 1023.65 327.867 1023.65 326.868C1023.65 325.87 1023.65 325.87 1023.65 323.872V322.873C1025.65 325.869 1028.64 328.866 1030.64 328.866C1033.64 328.866 1035.64 324.871 1036.63 316.879C1037.63 306.89 1035.64 297.899 1032.64 291.906C1033.64 290.907 1033.64 288.909 1033.64 287.91C1034.64 280.917 1029.64 274.924 1028.64 272.926V268.93C1030.64 269.929 1029.64 268.93 1031.64 268.93C1033.64 268.93 1032.64 268.93 1034.64 269.929C1036.63 270.928 1038.63 272.926 1042.63 272.926C1046.62 272.926 1044.63 273.925 1046.62 273.925C1048.62 273.925 1051.62 274.924 1054.61 274.924C1057.61 274.924 1055.61 274.924 1059.61 275.923C1063.61 275.923 1065.6 275.923 1066.6 274.924C1067.6 273.925 1068.6 274.924 1069.6 274.924C1070.6 274.924 1071.6 274.924 1072.6 273.925C1073.59 272.926 1079.59 273.925 1079.59 273.925C1083.58 274.924 1088.58 272.926 1088.58 272.926C1087.58 272.926 1088.58 273.925 1088.58 274.924C1088.58 275.923 1090.58 274.924 1091.58 274.924C1092.57 274.924 1092.57 273.925 1093.57 272.926C1099.57 270.928 1099.57 270.928 1099.57 269.929ZM986.687 232.968C986.687 232.968 986.687 233.967 987.686 233.967C986.687 233.967 985.688 233.967 984.689 233.967C983.691 231.97 983.691 229.972 982.692 226.975C982.692 224.977 982.692 222.979 983.691 221.98C984.69 220.981 986.687 220.981 987.686 219.982V220.981C987.686 222.979 987.686 224.977 988.685 226.975C988.685 228.973 987.686 230.971 986.687 232.968ZM1032.64 289.908C1032.64 290.907 1033.64 290.907 1033.64 291.906C1033.64 291.906 1033.64 292.905 1032.64 292.905V289.908ZM1037.63 316.879C1036.63 323.872 1035.64 325.869 1034.64 325.869C1033.64 325.869 1031.64 323.872 1029.64 320.875C1031.64 318.877 1032.64 314.881 1032.64 311.884V297.899C1033.64 296.9 1034.64 296.9 1034.64 295.901C1036.63 301.895 1038.63 308.888 1037.63 316.879ZM1034.64 286.911C1033.64 284.913 1032.64 283.914 1032.64 282.915V277.921C1033.64 280.917 1034.64 283.914 1034.64 286.911Z" fill="#000F33"/>
<path d="M1095.57 283.914C1094.57 283.914 1094.57 283.914 1095.57 283.914C1094.57 283.914 1094.57 283.914 1095.57 283.914L1096.57 281.916C1098.57 279.918 1101.56 275.922 1101.56 275.922C1101.56 275.922 1097.57 279.918 1096.57 281.916L1095.57 283.914Z" fill="#000F33"/>
<path d="M1086.58 423.765L1089.58 377.814L1098.57 212.99C1098.57 212.99 1098.57 212.99 1097.57 211.991L1086.58 423.765Z" fill="#1D4DA3"/>
<path d="M1083.58 260.938C1083.58 260.938 1081.59 260.938 1080.59 260.938C1079.59 260.938 1078.59 260.938 1077.59 260.938C1076.59 260.938 1070.6 258.94 1069.6 258.94C1068.6 258.94 1064.6 257.941 1063.6 256.942C1062.61 255.943 1060.61 257.941 1059.61 256.942C1058.61 255.943 1057.61 256.942 1054.61 255.943C1052.62 255.943 1053.62 254.944 1052.62 253.945C1053.62 252.946 1053.62 252.946 1053.62 252.946L1041.63 246.953C1041.63 246.953 1040.63 246.953 1040.63 247.952C1038.63 245.954 1037.63 246.953 1035.63 245.954C1033.64 244.955 1035.63 245.954 1033.64 245.954C1032.64 245.954 1032.64 245.954 1032.64 245.954C1031.64 241.958 1029.64 238.961 1025.65 237.962V236.963C1024.65 235.965 1024.65 234.966 1023.65 233.967C1023.65 233.967 1023.65 234.966 1022.65 234.966C1021.65 234.966 1020.65 236.963 1019.65 237.962C1019.65 238.961 1017.65 239.96 1017.65 240.959C1017.65 240.959 1020.65 239.96 1020.65 238.961C1021.65 237.962 1022.65 235.965 1023.65 236.963C1024.65 237.962 1026.64 237.962 1024.65 238.961C1022.65 239.96 1021.65 241.958 1021.65 243.956C1021.65 243.956 1023.65 240.959 1024.65 239.96C1025.65 238.961 1028.64 241.958 1028.64 243.956C1029.64 245.954 1030.64 246.953 1028.64 247.952C1026.64 248.951 1025.65 250.949 1025.65 253.945C1025.65 256.942 1026.64 254.944 1026.64 252.946C1026.64 250.949 1028.64 248.951 1030.64 248.951C1032.64 248.951 1035.63 247.952 1033.64 249.95C1031.64 251.947 1033.64 250.949 1034.64 250.949C1035.63 250.949 1038.63 248.951 1037.63 250.949C1035.63 252.946 1035.63 254.944 1034.64 256.942L1043.63 260.938L1036.63 255.943C1036.63 255.943 1037.63 252.946 1039.63 250.949L1050.62 254.944L1048.62 257.941L1050.62 255.943C1050.62 255.943 1050.62 256.942 1051.62 257.941C1051.62 258.94 1051.62 256.942 1052.62 258.94C1053.62 259.939 1053.62 257.941 1053.62 260.938C1052.62 263.935 1051.62 264.934 1053.62 261.937C1055.61 259.939 1057.61 256.942 1057.61 260.938C1057.61 263.935 1057.61 263.935 1058.61 261.937C1059.61 259.939 1062.61 259.939 1062.61 259.939C1063.6 259.939 1065.6 259.939 1063.6 261.937C1061.61 263.935 1062.61 262.936 1064.6 262.936C1066.6 261.937 1067.6 261.937 1068.6 261.937C1069.6 262.936 1070.6 262.936 1071.6 262.936C1072.6 262.936 1073.59 262.936 1073.59 263.935C1073.59 265.933 1073.59 266.932 1076.59 266.932C1079.59 266.932 1079.59 266.932 1078.59 265.933C1076.59 265.933 1075.59 263.935 1076.59 263.935C1076.59 262.936 1077.59 263.935 1078.59 263.935C1079.59 263.935 1079.59 263.935 1080.59 263.935C1081.59 263.935 1081.59 263.935 1081.59 263.935C1081.59 263.935 1083.58 262.936 1084.58 263.935C1084.58 264.934 1085.58 263.935 1085.58 265.933C1085.58 267.93 1086.58 265.933 1086.58 263.935C1084.58 261.937 1083.58 260.938 1083.58 260.938Z" fill="#1D4DA3"/>
<path d="M1023.65 216.985C1023.65 216.985 1022.65 220.981 1020.65 222.979C1020.65 222.979 1023.65 228.972 1022.65 232.968C1024.65 229.971 1024.65 226.974 1024.65 222.979C1024.65 211.99 1016.65 203 1005.67 203C997.675 203 989.683 208.994 987.685 216.985C987.685 215.986 992.68 205.997 1002.67 204.998C1002.67 204.998 999.672 208.994 999.672 214.987C999.672 214.987 1001.67 206.996 1004.67 204.998C1006.67 203.999 1019.65 203.999 1023.65 216.985Z" fill="#1D4DA3"/>
<path d="M1030.64 262.936C1029.64 261.937 1028.64 259.939 1028.64 259.939C1028.64 258.941 1027.64 258.941 1027.64 256.943C1027.64 254.945 1027.64 254.945 1026.64 255.944C1025.64 256.943 1026.64 255.944 1025.64 253.946C1024.65 251.948 1025.64 252.947 1024.65 251.948C1023.65 250.949 1024.65 250.949 1024.65 248.951C1024.65 247.952 1023.65 247.952 1023.65 246.953C1023.65 245.954 1022.65 245.954 1022.65 243.956C1022.65 241.959 1020.65 246.953 1020.65 242.958C1020.65 238.962 1018.65 239.961 1018.65 239.961C1018.65 239.961 988.684 239.961 986.686 239.961C984.688 239.961 978.695 240.96 977.696 246.953H1015.66C1020.65 245.954 1020.65 268.93 1020.65 290.906C1020.65 313.882 1017.65 314.881 1017.65 314.881C1023.65 313.882 1020.65 268.93 1021.65 263.935C1021.65 258.941 1023.65 269.929 1025.64 271.927C1027.64 273.925 1029.64 272.926 1028.64 272.926C1027.64 272.926 1024.65 270.928 1023.65 264.934C1023.65 257.942 1023.65 261.937 1025.64 261.937C1028.64 262.936 1027.64 263.935 1030.64 266.932C1034.64 267.931 1031.64 263.935 1030.64 262.936Z" fill="#1D4DA3"/>
<path d="M1027.64 270.927C1027.64 270.927 1030.64 273.924 1032.63 277.92C1034.63 281.916 1035.63 287.909 1033.63 291.905V290.906C1033.63 291.905 1036.63 281.916 1027.64 270.927Z" fill="#1D4DA3"/>
<path d="M1029.64 275.922C1028.64 271.927 1029.64 270.928 1029.64 270.928C1029.64 270.928 1030.64 270.928 1030.64 271.927C1030.64 269.929 1029.64 267.931 1029.64 267.931C1028.64 267.931 1028.64 270.928 1028.64 273.924C1028.64 276.921 1029.64 279.918 1029.64 279.918C1029.64 279.918 1030.64 278.919 1030.64 277.92C1030.64 275.922 1029.64 275.922 1029.64 275.922Z" fill="#1D4DA3"/>
<path d="M1026.65 282.915C1026.65 284.912 1026.65 286.91 1025.65 286.91C1025.65 286.91 1024.65 284.912 1024.65 282.915C1024.65 280.917 1024.65 278.919 1025.65 278.919C1026.65 278.919 1026.65 280.917 1026.65 282.915Z" fill="#1D4DA3"/>
<path d="M1026.65 303.892C1026.65 306.889 1026.65 308.887 1025.65 308.887C1025.65 308.887 1024.65 306.889 1024.65 303.892C1024.65 300.895 1024.65 298.898 1025.65 298.898C1026.65 298.898 1026.65 300.895 1026.65 303.892Z" fill="#1D4DA3"/>
<path d="M985.69 234.966C984.691 232.968 984.691 230.97 983.692 227.973C983.692 225.975 983.692 223.978 984.691 222.979C985.69 221.98 987.688 221.98 988.687 220.981C988.687 220.981 987.688 218.983 987.688 219.982C987.688 220.981 987.688 220.981 986.689 219.982C985.69 218.983 985.69 219.982 986.689 220.981C986.689 221.98 985.69 221.98 985.69 220.981C984.691 219.982 984.691 219.982 984.691 220.981C985.69 221.98 984.691 221.98 983.692 221.98C982.693 221.98 982.693 221.98 982.693 221.98C983.692 221.98 983.692 222.979 982.693 222.979C981.694 222.979 981.694 223.978 981.694 223.978C982.693 223.978 981.694 224.976 981.694 224.976C981.694 224.976 980.695 225.975 981.694 225.975C982.693 225.975 982.693 225.975 981.694 226.974C980.695 227.973 980.695 227.973 981.694 227.973C982.693 227.973 982.693 227.973 981.694 228.972C980.695 228.972 980.695 229.971 981.694 229.971C982.693 229.971 982.693 229.971 981.694 230.97C980.695 230.97 980.695 231.969 981.694 231.969C982.693 231.969 982.693 232.968 981.694 232.968C980.695 232.968 980.695 233.967 981.694 233.967C984.691 232.968 984.691 232.968 985.69 234.966C984.691 234.966 983.692 234.966 984.691 234.966C985.69 234.966 984.691 234.966 984.691 235.965C983.692 235.965 985.69 234.966 985.69 234.966Z" fill="#1D4DA3"/>
<path d="M1099.57 269.929C1099.57 268.93 1099.57 267.931 1099.57 267.931C1099.57 267.931 1098.57 266.932 1097.57 266.932C1096.57 266.932 1094.57 266.932 1093.57 266.932C1091.57 266.932 1093.57 266.932 1095.57 266.932C1097.57 266.932 1099.57 267.931 1099.57 268.93C1098.57 268.93 1098.57 269.929 1099.57 269.929C1098.57 270.927 1098.57 269.929 1097.57 269.929C1096.57 268.93 1094.57 269.929 1094.57 269.929C1094.57 269.929 1097.57 270.927 1097.57 271.926C1097.57 272.925 1096.57 273.924 1096.57 273.924C1095.57 273.924 1095.57 274.923 1094.57 274.923H1093.57C1094.57 274.923 1095.57 274.923 1095.57 274.923C1096.57 274.923 1096.57 273.924 1097.57 272.925C1099.57 270.927 1099.57 270.927 1099.57 269.929ZM1098.57 264.934C1098.57 265.933 1099.57 266.932 1099.57 266.932C1099.57 266.932 1099.57 266.932 1099.57 265.933C1099.57 265.933 1098.57 265.933 1098.57 264.934C1098.57 262.936 1097.57 262.936 1097.57 262.936C1097.57 262.936 1097.57 262.936 1097.57 261.937C1097.57 260.938 1096.57 259.939 1095.57 259.939C1094.57 259.939 1092.57 259.939 1092.57 259.939H1090.58C1090.58 259.939 1095.57 259.939 1095.57 260.938C1095.57 261.937 1095.57 261.937 1095.57 261.937C1095.57 261.937 1092.57 261.937 1091.57 262.936C1090.58 262.936 1090.58 262.936 1093.57 262.936C1096.57 263.935 1097.57 264.934 1098.57 264.934ZM1093.57 254.944C1092.57 253.946 1091.57 255.943 1090.58 256.942C1089.58 257.941 1088.58 259.939 1087.58 260.938C1086.58 261.937 1085.58 261.937 1085.58 261.937C1085.58 261.937 1088.58 261.937 1089.58 259.939C1089.58 258.94 1091.57 254.944 1093.57 254.944Z" fill="#1D4DA3"/>
<path d="M1028.64 280.917C1030.64 284.913 1033.63 288.908 1035.63 292.904C1035.63 293.903 1036.63 294.902 1036.63 295.901C1036.63 296.9 1036.63 296.9 1036.63 297.899V299.897C1036.63 301.895 1037.63 303.892 1037.63 306.889C1038.63 311.884 1038.63 315.88 1037.63 320.874C1037.63 321.873 1037.63 322.872 1036.63 323.871C1036.63 324.87 1035.63 325.869 1035.63 326.868C1034.63 327.867 1034.63 328.866 1032.64 328.866C1031.64 328.866 1030.64 329.865 1029.64 328.866C1030.64 328.866 1030.64 328.866 1031.64 328.866C1032.64 328.866 1032.64 328.866 1033.63 328.866C1034.63 327.867 1035.63 327.867 1035.63 326.868C1036.63 325.869 1036.63 324.87 1036.63 323.871C1036.63 322.872 1037.63 321.873 1037.63 320.874C1037.63 318.876 1037.63 316.879 1037.63 313.882C1037.63 311.884 1037.63 309.886 1036.63 306.889C1036.63 304.891 1035.63 302.893 1035.63 299.897V297.899C1035.63 296.9 1035.63 296.9 1035.63 295.901C1035.63 294.902 1034.63 293.903 1034.63 292.904C1033.63 290.906 1032.64 288.908 1031.64 286.911C1031.64 284.913 1029.64 282.915 1028.64 280.917Z" fill="#1D4DA3"/>
<path d="M1032.64 297.899L1030.64 300.896V304.891L1031.64 303.893C1031.64 303.893 1032.64 309.886 1032.64 311.884C1032.64 313.882 1028.64 315.88 1028.64 315.88H1031.64L1030.64 316.879V317.878C1030.64 318.877 1030.64 319.876 1030.64 319.876H1033.64L1035.64 312.883C1035.64 312.883 1035.64 307.888 1035.64 306.889C1035.64 305.89 1035.64 303.893 1035.64 302.894C1034.64 302.894 1032.64 297.899 1032.64 297.899Z" fill="#1D4DA3"/>
<path d="M1025.64 324.867C1025.64 323.868 1025.64 323.868 1025.64 321.87V320.871C1025.64 320.871 1025.64 321.87 1023.65 324.867C1021.65 327.863 1021.65 329.861 1022.65 327.863C1023.65 327.863 1023.65 326.865 1023.65 326.865C1023.65 326.865 1023.65 327.863 1023.65 329.861C1024.65 334.856 1025.64 335.855 1024.65 338.852C1023.65 340.85 1024.65 341.849 1022.65 343.846C1020.65 344.845 1017.65 346.843 1016.65 348.841C1015.66 350.839 1015.66 349.84 1018.65 347.842C1021.65 346.843 1023.65 345.844 1023.65 347.842C1022.65 349.84 1022.65 348.841 1019.65 351.838C1016.65 354.835 1012.66 359.829 1016.65 357.831C1019.65 354.835 1022.65 352.837 1022.65 355.834C1022.65 358.83 1019.65 358.83 1017.65 362.826C1015.66 366.822 1016.65 365.823 1018.65 363.825C1020.65 360.828 1021.65 363.825 1022.65 364.824C1023.65 365.823 1023.65 372.816 1020.65 374.813C1016.65 376.811 1012.66 379.808 1013.66 382.805C1014.66 385.802 1014.66 384.803 1014.66 382.805C1014.66 380.807 1017.65 377.81 1018.65 378.809C1019.65 379.808 1014.66 382.805 1017.65 381.806C1020.65 380.807 1020.65 381.806 1019.65 382.805C1018.65 383.804 1017.65 385.802 1018.65 385.802C1019.65 386.801 1021.65 392.794 1019.65 390.796C1017.65 388.799 1016.65 388.799 1018.65 390.796C1020.65 392.794 1020.65 394.792 1017.65 394.792C1014.66 394.792 1013.66 394.792 1014.66 395.791C1015.66 396.79 1016.65 397.789 1015.66 397.789C1014.66 397.789 1015.66 397.789 1014.66 399.787C1013.66 401.785 1012.66 408.777 1011.66 410.775C1010.66 412.773 1010.66 414.771 1010.66 414.771C1010.66 414.771 1011.66 416.769 1011.66 417.768C1011.66 419.765 1011.66 419.766 1011.66 419.766C1011.66 419.766 1013.66 420.764 1012.66 421.763C1013.66 420.764 1016.65 416.769 1016.65 416.769L1017.65 413.772C1017.65 412.773 1016.65 411.774 1015.66 411.774C1015.66 411.774 1016.65 413.772 1014.66 414.771C1012.66 416.769 1011.66 416.769 1011.66 416.769V414.771L1012.66 410.775C1013.66 408.777 1014.66 404.781 1014.66 403.783C1014.66 403.783 1014.66 402.784 1014.66 401.785C1015.66 400.786 1015.66 400.786 1015.66 399.787C1015.66 397.789 1016.65 397.789 1017.65 397.789C1018.65 396.79 1018.65 395.791 1019.65 392.794C1020.65 389.797 1019.65 391.795 1020.65 388.799C1021.65 385.802 1020.65 381.806 1021.65 378.809C1022.65 375.812 1024.65 366.822 1024.65 365.823C1024.65 363.825 1024.65 364.824 1023.65 361.827C1022.65 359.829 1023.65 359.829 1024.65 358.83C1025.64 357.832 1024.65 356.833 1023.65 354.835C1022.65 352.837 1022.65 351.838 1024.65 350.839C1026.64 349.84 1024.65 347.842 1024.65 345.844C1024.65 343.846 1026.64 343.846 1026.64 340.85C1026.64 334.856 1025.64 325.866 1025.64 324.867ZM998.674 329.861C998.674 328.862 998.674 329.861 997.675 331.859C997.675 333.857 996.676 332.858 996.676 334.856C996.676 336.854 996.676 336.854 995.677 337.853C994.678 337.853 994.678 337.853 993.679 338.852C992.68 339.851 992.68 340.85 990.682 337.853C988.684 333.857 987.685 332.858 989.683 337.853C991.681 342.847 992.68 345.844 990.682 345.844C987.685 345.844 986.686 347.842 988.684 347.842C990.682 347.842 991.681 345.844 987.685 350.839C983.69 355.834 983.69 355.834 987.685 352.837C991.681 349.84 992.68 351.838 989.683 353.836C986.687 355.834 986.686 355.834 985.687 356.833C983.69 357.832 984.689 356.833 982.691 359.829C979.694 362.826 978.695 364.824 977.696 366.822C976.697 368.82 978.695 365.823 980.693 363.825C982.691 361.827 989.683 357.832 987.685 359.829C985.688 361.827 985.687 362.826 985.687 363.825C985.687 364.824 984.689 364.824 985.687 365.823C985.687 366.822 985.687 366.822 985.687 368.82C985.687 370.818 986.687 369.819 984.689 371.817C982.691 374.813 979.694 376.811 982.691 374.813C985.688 373.814 986.686 368.82 986.686 371.817C986.686 373.814 986.686 375.812 986.686 376.811C985.688 378.809 985.688 378.809 984.689 379.808C984.689 381.806 983.69 381.806 983.69 383.804C983.69 385.802 983.69 383.804 983.69 385.802C983.69 387.8 983.69 386.801 982.691 388.799C982.691 389.797 982.691 389.797 982.691 389.797C982.691 389.797 982.691 389.797 981.692 391.795C979.694 394.792 980.693 394.792 981.692 394.792C982.691 394.792 980.693 397.789 980.693 398.788C980.693 399.787 980.693 400.786 978.695 400.786C977.696 400.786 975.698 401.785 974.699 401.785C973.7 401.785 976.697 402.784 978.695 401.785C980.693 400.786 980.693 400.786 980.693 400.786C980.693 400.786 979.694 408.777 979.694 410.775C979.694 412.773 979.694 416.769 977.696 416.769C975.698 417.768 974.699 417.768 974.699 417.768C974.699 417.768 976.697 418.767 977.696 417.768C979.694 416.769 979.694 418.767 976.697 420.764C977.696 420.764 978.695 419.766 979.694 419.766C980.693 418.767 980.693 417.768 980.693 416.769L982.691 399.787H980.693C981.692 398.788 981.692 397.789 981.692 397.789C981.692 397.789 982.691 394.792 982.691 391.795C982.691 388.799 983.69 388.799 984.689 385.802C986.687 382.805 984.689 381.806 985.687 379.808C986.686 377.81 986.686 374.813 985.687 371.817C984.689 368.82 986.686 368.82 985.687 366.822C985.687 364.824 985.688 364.824 986.686 363.825C987.685 361.827 986.686 362.826 986.686 359.829C986.686 356.833 986.687 358.83 989.683 356.833C991.681 354.835 989.683 355.834 990.682 351.838C991.681 347.842 992.68 349.84 992.68 347.842C993.679 345.844 991.681 346.843 992.68 344.845C993.679 342.847 994.678 343.846 994.678 340.85C994.678 337.853 996.676 334.856 996.676 337.853C996.676 339.851 997.675 339.851 998.674 336.854C1000.67 334.856 999.673 330.86 998.674 329.861Z" fill="#1D4DA3"/>
<path d="M948.728 303.893C948.728 303.893 949.727 307.888 948.728 309.886C947.729 311.884 946.73 313.882 945.731 314.881C944.732 315.88 943.733 315.88 943.733 315.88C943.733 315.88 943.733 315.88 943.733 316.879C943.733 317.878 941.735 320.875 941.735 321.874C940.736 322.873 940.736 323.871 939.737 323.871C940.736 323.871 940.736 323.871 941.735 322.873C942.734 321.874 943.733 319.876 944.732 318.877C944.732 316.879 945.731 316.879 946.73 315.88C947.729 314.881 949.727 312.883 951.725 309.886C951.725 308.887 952.724 308.887 952.724 307.888C949.727 304.892 948.728 303.893 948.728 303.893ZM972.702 275.923C972.702 279.918 972.702 284.913 971.703 281.916C970.704 278.919 967.708 276.921 968.707 278.919C969.706 280.917 973.701 283.914 969.706 282.915C966.709 282.915 963.712 280.917 966.709 282.915C968.707 283.914 970.704 285.912 967.708 285.912C965.71 285.912 961.714 287.91 964.711 287.91C967.708 287.91 965.71 288.909 964.711 289.908C963.712 290.907 961.714 291.906 962.713 291.906C963.712 291.906 962.713 293.903 959.716 292.904C957.718 291.906 956.719 291.906 957.718 292.904C958.717 293.903 957.718 294.902 955.72 297.899C954.722 299.897 951.725 301.895 951.725 301.895C951.725 301.895 949.727 299.897 947.729 298.898C945.731 297.899 946.73 299.897 948.728 301.895C950.726 302.894 947.729 301.895 946.73 301.895C946.73 301.895 948.728 303.893 949.727 306.89C950.726 306.89 951.725 306.89 951.725 306.89C952.724 305.891 955.72 300.896 956.719 299.897C957.718 299.897 957.718 298.898 959.716 296.9C960.715 294.902 960.715 295.901 962.713 294.902C964.711 293.903 963.712 293.903 964.711 291.906C965.71 289.908 965.71 290.907 966.709 289.908C966.709 289.908 967.708 289.908 967.708 288.909L969.706 286.911C971.703 284.913 970.704 284.913 971.703 283.914C972.702 283.914 972.702 282.915 972.702 281.916V266.932C973.701 266.932 972.702 271.927 972.702 275.923ZM939.737 318.877C939.737 318.877 937.74 321.874 936.741 321.874C935.742 322.873 934.743 323.871 933.744 322.873C933.744 323.871 933.744 323.871 934.743 323.871C935.742 323.871 936.741 322.873 937.74 321.874C938.739 320.875 938.739 319.876 939.737 318.877ZM932.745 315.88C932.745 315.88 928.749 317.878 928.749 316.879C928.749 317.878 928.749 317.878 929.748 317.878C930.747 317.878 930.747 317.878 931.746 316.879C932.745 316.879 932.745 315.88 932.745 315.88ZM935.742 317.878C935.742 317.878 932.745 320.875 931.746 320.875C931.746 320.875 929.748 321.874 929.748 320.875V321.874C930.747 322.873 931.746 321.874 932.745 320.875C933.744 320.875 934.743 319.876 935.742 317.878Z" fill="#1D4DA3"/>
<path d="M1013.66 313.882H980.693C980.693 313.882 982.691 314.88 984.689 315.879C986.687 316.878 1016.65 315.879 1016.65 315.879L1013.66 313.882Z" fill="#1D4DA3"/>
<path d="M1102.56 275.922L1105.56 218.983C1105.56 218.983 1117.55 222.979 1123.54 224.976C1129.53 225.975 1140.52 227.973 1143.52 229.971C1145.52 231.969 1155.51 236.964 1162.5 237.963C1169.49 238.961 1176.48 239.96 1178.48 240.959C1180.48 242.957 1183.48 243.956 1184.48 243.956C1185.47 243.956 1185.47 243.956 1185.47 243.956C1185.47 243.956 1182.48 249.95 1180.48 254.944C1178.48 259.939 1177.48 264.934 1174.49 267.931C1172.49 270.927 1170.49 274.923 1170.49 278.919C1170.49 282.915 1171.49 284.913 1171.49 284.913C1171.49 284.913 1169.49 282.915 1166.49 283.914C1163.5 283.914 1157.5 284.913 1156.51 284.913C1155.51 284.913 1154.51 283.914 1154.51 281.916V280.917C1154.51 280.917 1146.52 278.919 1139.52 276.921C1132.53 274.923 1124.54 271.926 1118.55 273.924C1113.55 274.923 1108.56 274.923 1107.56 274.923C1104.56 274.923 1102.56 275.922 1102.56 275.922Z" fill="url(#paint4_linear)"/>
<path d="M1150.51 265.933C1148.52 263.935 1145.52 260.938 1145.52 258.94C1146.52 256.942 1147.52 254.944 1145.52 254.944C1143.52 253.946 1142.52 252.947 1144.52 252.947C1146.52 252.947 1146.52 251.948 1147.52 250.949C1148.52 249.95 1148.52 249.95 1149.51 249.95C1150.51 249.95 1149.51 247.952 1147.52 248.951C1145.52 249.95 1143.52 250.949 1143.52 249.95C1143.52 248.951 1140.52 246.953 1138.53 246.953C1136.53 246.953 1134.53 245.954 1137.53 245.954C1140.52 245.954 1144.52 249.95 1145.52 248.951C1147.52 248.951 1146.52 246.953 1147.52 246.953C1148.52 246.953 1148.52 243.956 1144.52 243.956C1139.53 243.956 1136.53 244.955 1133.53 243.956C1130.53 243.956 1127.54 242.957 1132.53 242.957C1137.53 242.957 1142.52 243.956 1136.53 241.958C1130.53 239.96 1126.54 239.96 1123.54 237.963C1120.55 234.966 1118.55 231.969 1117.55 231.969C1116.55 230.97 1115.55 230.97 1119.55 232.968C1123.54 234.966 1130.53 237.963 1126.54 233.967C1122.54 230.97 1117.55 228.972 1117.55 226.974C1117.55 225.975 1121.54 224.976 1122.54 226.974C1123.54 228.972 1126.54 231.969 1130.53 232.968C1134.53 232.968 1136.53 230.97 1138.53 231.969C1141.52 232.968 1138.53 229.971 1134.53 227.973C1133.53 227.973 1132.53 226.974 1130.53 226.974C1128.54 225.975 1125.54 225.975 1123.54 225.975C1121.54 225.975 1119.55 224.976 1117.55 223.977C1117.55 223.977 1117.55 223.977 1117.55 224.976C1118.55 225.975 1117.55 225.975 1116.55 225.975C1115.55 226.974 1116.55 224.976 1113.55 223.977C1110.56 222.979 1109.56 220.981 1107.56 219.982C1106.56 219.982 1105.56 218.983 1105.56 218.983V219.982C1107.56 222.979 1111.56 232.968 1113.55 237.963C1115.55 243.956 1116.55 247.952 1111.55 237.963C1107.56 228.972 1105.56 220.981 1104.56 224.976L1103.56 238.961C1103.56 239.96 1104.56 240.959 1104.56 241.958C1107.56 247.952 1110.56 248.951 1109.56 249.95C1108.56 250.949 1106.56 254.944 1108.56 255.943C1110.56 256.942 1113.55 260.938 1111.55 261.937C1110.56 262.936 1108.56 266.932 1112.55 267.931C1116.55 268.93 1116.55 272.925 1112.55 270.927C1108.56 268.93 1106.56 267.931 1105.56 262.936C1104.56 257.941 1105.56 256.942 1105.56 258.94C1106.56 259.939 1106.56 259.939 1104.56 255.943C1102.56 251.948 1105.56 251.948 1103.56 248.951C1102.56 247.952 1102.56 245.954 1101.57 244.955L1099.57 275.922C1099.57 275.922 1101.57 274.923 1102.56 274.923C1103.56 274.923 1108.56 274.923 1113.55 273.924C1118.55 272.925 1127.54 274.923 1134.53 276.921C1141.52 278.919 1149.51 280.917 1149.51 280.917V281.916C1149.51 283.914 1150.51 284.913 1150.51 284.913C1150.51 284.913 1149.51 282.915 1149.51 278.919C1152.51 273.924 1152.51 267.931 1150.51 265.933ZM1137.53 266.932C1137.53 260.938 1137.53 257.941 1135.53 258.94C1133.53 259.939 1133.53 259.939 1133.53 257.941C1133.53 254.944 1134.53 253.946 1131.53 252.947C1128.54 251.948 1127.54 251.948 1128.54 249.95C1129.54 248.951 1129.54 247.952 1127.54 245.954C1125.54 244.955 1124.54 241.958 1124.54 241.958C1126.54 243.956 1138.53 250.949 1139.53 259.939C1140.52 268.93 1137.53 272.925 1137.53 266.932ZM1177.48 255.943C1174.49 257.941 1174.49 257.941 1173.49 257.941C1172.49 256.942 1169.49 255.943 1168.49 255.943C1166.5 255.943 1166.5 254.944 1167.5 253.946C1167.5 253.946 1168.49 252.947 1166.5 252.947C1165.5 252.947 1164.5 251.948 1162.5 249.95C1160.5 247.952 1155.51 247.952 1154.51 249.95C1153.51 250.949 1152.51 251.948 1151.51 252.947C1149.51 252.947 1148.52 253.946 1150.51 253.946C1152.51 253.946 1154.51 252.947 1156.51 251.948C1158.5 251.948 1160.5 253.946 1161.5 254.944C1162.5 255.943 1163.5 256.942 1165.5 255.943C1167.5 254.944 1166.5 255.943 1164.5 257.941C1161.5 258.94 1157.51 257.941 1154.51 257.941C1150.51 257.941 1148.52 258.94 1148.52 259.939C1148.52 260.938 1151.51 259.939 1154.51 260.938C1158.5 261.937 1157.51 262.936 1160.5 264.934C1163.5 266.932 1163.5 272.925 1163.5 274.923C1162.5 276.921 1162.5 280.917 1162.5 280.917C1164.5 273.924 1166.5 270.927 1165.5 273.924C1164.5 276.921 1164.5 277.92 1166.5 274.923C1168.49 271.926 1169.49 272.925 1171.49 270.927C1173.49 269.928 1173.49 266.932 1175.49 262.936C1176.49 259.939 1179.48 257.941 1181.48 255.943V254.944C1181.48 253.946 1182.48 253.946 1182.48 252.947C1179.48 253.946 1178.48 254.944 1177.48 255.943Z" fill="#000F33"/>
<path d="M1106.56 218.983C1106.56 219.982 1106.56 219.982 1105.56 219.982C1104.56 219.982 1104.56 219.982 1104.56 218.983C1104.56 217.984 1104.56 217.984 1105.56 217.984L1106.56 218.983Z" fill="#000F33"/>
<path d="M1103.56 274.923C1103.56 275.922 1102.56 275.922 1102.56 275.922C1101.57 275.922 1101.57 274.923 1101.57 274.923C1101.57 273.924 1102.56 273.924 1102.56 273.924C1103.56 273.924 1103.56 274.923 1103.56 274.923Z" fill="#000F33"/>
<path d="M1102.56 275.922C1101.56 275.922 1101.56 275.922 1102.56 275.922C1101.56 272.925 1101.56 257.941 1101.56 251.948C1101.56 249.95 1102.56 244.955 1102.56 240.959C1102.56 239.96 1102.56 238.961 1102.56 237.962C1102.56 231.969 1103.56 224.976 1104.56 220.981C1104.56 219.982 1104.56 218.983 1104.56 218.983C1102.56 217.984 1100.57 215.986 1099.57 214.987L1098.57 213.988C1098.57 213.988 1098.57 213.988 1099.57 214.987C1100.57 215.986 1102.56 217.984 1104.56 218.983V217.984C1104.56 217.984 1104.56 218.983 1104.56 219.982C1104.56 222.978 1103.56 228.972 1102.56 236.964C1102.56 237.962 1102.56 237.962 1102.56 238.961C1102.56 242.957 1102.56 246.953 1102.56 252.946C1102.56 275.922 1102.56 275.922 1102.56 275.922ZM1102.56 245.954C1102.56 247.952 1102.56 249.95 1102.56 251.948C1102.56 257.941 1102.56 267.931 1102.56 272.925C1102.56 268.929 1102.56 260.938 1102.56 253.945C1102.56 250.949 1102.56 247.952 1102.56 245.954ZM1103.56 226.974C1103.56 228.972 1103.56 229.971 1102.56 231.969C1103.56 230.97 1103.56 228.972 1103.56 226.974Z" fill="#000F33"/>
<path d="M1094.57 282.915V285.912C1095.57 285.912 1095.57 284.913 1095.57 284.913C1095.57 283.914 1095.57 282.915 1094.57 282.915Z" fill="#000F33"/>
<path d="M1097.57 212.989V215.986C1098.57 215.986 1098.57 214.987 1098.57 214.987C1099.57 213.988 1098.57 212.989 1097.57 212.989Z" fill="#000F33"/>
</g>
<defs>
<filter id="filter0_f" x="843" y="111" width="310" height="310" filterUnits="userSpaceOnUse" color-interpolation-filters="sRGB">
<feFlood flood-opacity="0" result="BackgroundImageFix"/>
<feBlend mode="normal" in="SourceGraphic" in2="BackgroundImageFix" result="shape"/>
<feGaussianBlur stdDeviation="42" result="effect1_foregroundBlur"/>
</filter>
<filter id="filter1_f" x="737" y="314" width="562" height="310" filterUnits="userSpaceOnUse" color-interpolation-filters="sRGB">
<feFlood flood-opacity="0" result="BackgroundImageFix"/>
<feBlend mode="normal" in="SourceGraphic" in2="BackgroundImageFix" result="shape"/>
<feGaussianBlur stdDeviation="42" result="effect1_foregroundBlur"/>
</filter>
<linearGradient id="paint0_linear" x1="1175.71" y1="-269.065" x2="1292.52" y2="323.592" gradientUnits="userSpaceOnUse">
<stop stop-color="#0D2651"/>
<stop offset="1" stop-color="#0B2045"/>
</linearGradient>
<linearGradient id="paint1_linear" x1="942.309" y1="54.0758" x2="1124.58" y2="485.471" gradientUnits="userSpaceOnUse">
<stop stop-color="#153774"/>
<stop offset="1" stop-color="#081937"/>
</linearGradient>
<linearGradient id="paint2_linear" x1="891.766" y1="68" x2="758.579" y2="256.353" gradientUnits="userSpaceOnUse">
<stop stop-color="#0D2753"/>
<stop offset="1" stop-color="#081937"/>
</linearGradient>
<linearGradient id="paint3_linear" x1="1070" y1="450" x2="465" y2="407" gradientUnits="userSpaceOnUse">
<stop stop-color="#000F33"/>
<stop offset="1" stop-color="#081937"/>
</linearGradient>
<linearGradient id="paint4_linear" x1="1144.02" y1="218.983" x2="1144.02" y2="284.913" gradientUnits="userSpaceOnUse">
<stop stop-color="#1D4DA3"/>
<stop offset="1" stop-color="#1D4DA3" stop-opacity="0"/>
</linearGradient>
</defs>
</svg>
