<svg width="45" height="45" viewBox="0 0 45 45" fill="none" xmlns="http://www.w3.org/2000/svg">
<rect width="45" height="45" fill="white"/>
<path d="M36.0603 16.027C35.7417 14.8434 34.8085 13.9104 33.6251 13.5917C31.463 13 22.8145 13 22.8145 13C22.8145 13 14.1662 13 12.004 13.5691C10.8434 13.8876 9.88745 14.8436 9.56894 16.027C9 18.1888 9 22.6724 9 22.6724C9 22.6724 9 27.1784 9.56894 29.3178C9.88766 30.5011 10.8206 31.4343 12.0043 31.753C14.1889 32.3447 22.8147 32.3447 22.8147 32.3447C22.8147 32.3447 31.463 32.3447 33.6251 31.7756C34.8088 31.4571 35.7417 30.5239 36.0605 29.3405C36.6294 27.1784 36.6294 22.6951 36.6294 22.6951C36.6294 22.6951 36.6522 18.1888 36.0603 16.027Z" fill="#A0A8C2"/>
<path d="M20.0605 26.814L27.2523 22.6724L20.0605 18.5308V26.814Z" fill="white"/>
</svg>
